<mxfile host="www.draw.io" modified="2019-10-16T12:06:01.707Z" agent="Mozilla/5.0 (Macintosh; Intel Mac OS X 10_14_5) AppleWebKit/537.36 (KHTML, like Gecko) Chrome/77.0.3865.90 Safari/537.36" etag="sY_f4fsKcS1FOTWStwB6" version="12.1.1" type="github" pages="1">
  <diagram id="hatcAHj4JaseidqqJItx" name="Page-1">
    <mxGraphModel dx="2493" dy="722" grid="1" gridSize="10" guides="1" tooltips="1" connect="1" arrows="1" fold="1" page="1" pageScale="1" pageWidth="827" pageHeight="1169" math="0" shadow="0">
      <root>
        <mxCell id="0"/>
        <mxCell id="1" parent="0"/>
        <mxCell id="SxgjUJMsSInwgabmD7E0-23" value="&lt;p style=&quot;margin: 0px ; margin-top: 4px ; text-align: center&quot;&gt;&lt;b&gt;CarNavEngine&lt;/b&gt;&lt;br&gt;&lt;/p&gt;&lt;hr size=&quot;1&quot;&gt;&lt;p style=&quot;margin: 0px ; margin-left: 4px&quot;&gt;+ stopNav()&lt;/p&gt;" style="verticalAlign=top;align=left;overflow=fill;fontSize=12;fontFamily=Helvetica;html=1;" parent="1" vertex="1">
          <mxGeometry x="-180" y="405" width="105" height="50" as="geometry"/>
        </mxCell>
        <mxCell id="SxgjUJMsSInwgabmD7E0-33" value="&lt;p style=&quot;margin: 0px ; margin-top: 4px ; text-align: center&quot;&gt;&lt;b&gt;SummaryCarNavDataHelper&lt;/b&gt;&lt;br&gt;&lt;/p&gt;&lt;hr size=&quot;1&quot;&gt;&lt;p style=&quot;margin: 0px ; margin-left: 4px&quot;&gt;&lt;/p&gt;&lt;p style=&quot;margin: 0px ; margin-left: 4px&quot;&gt;&lt;br&gt;&lt;/p&gt;" style="verticalAlign=top;align=left;overflow=fill;fontSize=12;fontFamily=Helvetica;html=1;" parent="1" vertex="1">
          <mxGeometry x="280" y="492.5" width="180" height="51" as="geometry"/>
        </mxCell>
        <mxCell id="SxgjUJMsSInwgabmD7E0-35" value="&lt;p style=&quot;margin: 0px ; margin-top: 4px ; text-align: center&quot;&gt;&lt;b&gt;BusinessUtils&lt;/b&gt;&lt;/p&gt;&lt;hr size=&quot;1&quot;&gt;&lt;p style=&quot;margin: 0px ; margin-left: 4px&quot;&gt;+ gotoSummary()&lt;/p&gt;" style="verticalAlign=top;align=left;overflow=fill;fontSize=12;fontFamily=Helvetica;html=1;" parent="1" vertex="1">
          <mxGeometry x="250" y="640" width="120" height="50" as="geometry"/>
        </mxCell>
        <mxCell id="SxgjUJMsSInwgabmD7E0-36" value="" style="endArrow=open;endSize=12;dashed=1;html=1;entryX=0;entryY=0.5;entryDx=0;entryDy=0;" parent="1" edge="1">
          <mxGeometry width="160" relative="1" as="geometry">
            <mxPoint x="-70" y="426" as="sourcePoint"/>
            <mxPoint x="-35" y="426" as="targetPoint"/>
          </mxGeometry>
        </mxCell>
        <mxCell id="SxgjUJMsSInwgabmD7E0-39" value="&lt;p style=&quot;margin: 0px ; margin-top: 4px ; text-align: center&quot;&gt;&lt;b&gt;DrivingScoreManager&lt;/b&gt;&lt;/p&gt;&lt;hr size=&quot;1&quot;&gt;&lt;p style=&quot;margin: 0px ; margin-left: 4px&quot;&gt;+checkDrivingScoring()&lt;/p&gt;" style="verticalAlign=top;align=left;overflow=fill;fontSize=12;fontFamily=Helvetica;html=1;" parent="1" vertex="1">
          <mxGeometry x="570" y="365" width="160" height="58" as="geometry"/>
        </mxCell>
        <mxCell id="ehyeMLWLZtypJvzTVTHI-1" value="&lt;p style=&quot;margin: 0px ; margin-top: 4px ; text-align: center&quot;&gt;&lt;b&gt;DrivingTrackRecorder&lt;/b&gt;&lt;br&gt;&lt;/p&gt;&lt;hr size=&quot;1&quot;&gt;&lt;p style=&quot;margin: 0px ; margin-left: 4px&quot;&gt;+ field: Type&lt;/p&gt;&lt;hr size=&quot;1&quot;&gt;&lt;p style=&quot;margin: 0px ; margin-left: 4px&quot;&gt;+ method(): Type&lt;/p&gt;" style="verticalAlign=top;align=left;overflow=fill;fontSize=12;fontFamily=Helvetica;html=1;" vertex="1" parent="1">
          <mxGeometry x="570" y="266" width="160" height="90" as="geometry"/>
        </mxCell>
        <mxCell id="ehyeMLWLZtypJvzTVTHI-3" value="&lt;p style=&quot;margin: 0px ; margin-top: 4px ; text-align: center&quot;&gt;&lt;b&gt;SummaryNavDataHelper&lt;/b&gt;&lt;br&gt;&lt;/p&gt;&lt;hr size=&quot;1&quot;&gt;&lt;p style=&quot;margin: 0px ; margin-left: 4px&quot;&gt;+onNavInitializing&lt;/p&gt;&lt;p style=&quot;margin: 0px ; margin-left: 4px&quot;&gt;+onNavLocationResultComing&lt;/p&gt;&lt;p style=&quot;margin: 0px ; margin-left: 4px&quot;&gt;+onNavAttachedResultComing&lt;/p&gt;&lt;p style=&quot;margin: 0px ; margin-left: 4px&quot;&gt;+onNavReleasing&lt;/p&gt;" style="verticalAlign=top;align=left;overflow=fill;fontSize=12;fontFamily=Helvetica;html=1;" vertex="1" parent="1">
          <mxGeometry x="160" y="347" width="220" height="90" as="geometry"/>
        </mxCell>
        <mxCell id="ehyeMLWLZtypJvzTVTHI-14" value="&lt;p style=&quot;margin: 0px ; margin-top: 4px ; text-align: center&quot;&gt;&lt;i&gt;&amp;lt;&amp;lt;Interface&amp;gt;&amp;gt;&lt;/i&gt;&lt;br&gt;&lt;b&gt;NavObserver&lt;/b&gt;&lt;/p&gt;&lt;hr size=&quot;1&quot;&gt;&lt;p style=&quot;margin: 0px ; margin-left: 4px&quot;&gt;+onInitializing&lt;/p&gt;&lt;p style=&quot;margin: 0px ; margin-left: 4px&quot;&gt;+onAttachedResultComing&lt;/p&gt;&lt;p style=&quot;margin: 0px ; margin-left: 4px&quot;&gt;+onWayOut&lt;/p&gt;&lt;p style=&quot;margin: 0px ; margin-left: 4px&quot;&gt;+onReleasing&lt;/p&gt;" style="verticalAlign=top;align=left;overflow=fill;fontSize=12;fontFamily=Helvetica;html=1;" vertex="1" parent="1">
          <mxGeometry x="175" y="170" width="190" height="110" as="geometry"/>
        </mxCell>
        <mxCell id="ehyeMLWLZtypJvzTVTHI-22" value="&lt;p style=&quot;margin: 0px ; margin-top: 4px ; text-align: center&quot;&gt;&lt;b&gt;Walk/BikeNavEngine&lt;/b&gt;&lt;br&gt;&lt;/p&gt;&lt;hr size=&quot;1&quot;&gt;&lt;p style=&quot;margin: 0px ; margin-left: 4px&quot;&gt;+ stopNav()&lt;/p&gt;" style="verticalAlign=top;align=left;overflow=fill;fontSize=12;fontFamily=Helvetica;html=1;" vertex="1" parent="1">
          <mxGeometry x="-200" y="215" width="135" height="50" as="geometry"/>
        </mxCell>
        <mxCell id="ehyeMLWLZtypJvzTVTHI-27" value="" style="endArrow=open;endSize=12;dashed=1;html=1;entryX=0.013;entryY=1.038;entryDx=0;entryDy=0;entryPerimeter=0;exitX=1;exitY=0.5;exitDx=0;exitDy=0;" edge="1" parent="1" source="ehyeMLWLZtypJvzTVTHI-22">
          <mxGeometry width="160" relative="1" as="geometry">
            <mxPoint x="-70" y="128" as="sourcePoint"/>
            <mxPoint x="-27.269999999999982" y="242.98800000000006" as="targetPoint"/>
          </mxGeometry>
        </mxCell>
        <mxCell id="ehyeMLWLZtypJvzTVTHI-29" value="&lt;p style=&quot;margin: 0px ; margin-top: 4px ; text-align: center&quot;&gt;&lt;b&gt;SummaryWalk/BikeNavDataHelper&lt;/b&gt;&lt;br&gt;&lt;/p&gt;&lt;hr size=&quot;1&quot;&gt;&lt;p style=&quot;margin: 0px ; margin-left: 4px&quot;&gt;&lt;/p&gt;&lt;p style=&quot;margin: 0px ; margin-left: 4px&quot;&gt;&lt;br&gt;&lt;/p&gt;" style="verticalAlign=top;align=left;overflow=fill;fontSize=12;fontFamily=Helvetica;html=1;" vertex="1" parent="1">
          <mxGeometry x="10" y="489" width="210" height="58" as="geometry"/>
        </mxCell>
        <mxCell id="ehyeMLWLZtypJvzTVTHI-33" value="" style="endArrow=block;endSize=16;endFill=0;html=1;exitX=0.5;exitY=0;exitDx=0;exitDy=0;" edge="1" parent="1" source="ehyeMLWLZtypJvzTVTHI-29">
          <mxGeometry width="160" relative="1" as="geometry">
            <mxPoint x="-40" y="590" as="sourcePoint"/>
            <mxPoint x="270" y="440" as="targetPoint"/>
            <Array as="points">
              <mxPoint x="120" y="470"/>
              <mxPoint x="190" y="470"/>
              <mxPoint x="270" y="470"/>
            </Array>
          </mxGeometry>
        </mxCell>
        <mxCell id="ehyeMLWLZtypJvzTVTHI-34" value="" style="endArrow=block;endSize=16;endFill=0;html=1;entryX=0.5;entryY=1;entryDx=0;entryDy=0;exitX=0.5;exitY=0;exitDx=0;exitDy=0;" edge="1" parent="1" source="SxgjUJMsSInwgabmD7E0-33" target="ehyeMLWLZtypJvzTVTHI-3">
          <mxGeometry width="160" relative="1" as="geometry">
            <mxPoint x="130" y="480" as="sourcePoint"/>
            <mxPoint x="290" y="480" as="targetPoint"/>
            <Array as="points">
              <mxPoint x="370" y="474"/>
              <mxPoint x="270" y="474"/>
              <mxPoint x="270" y="460"/>
            </Array>
          </mxGeometry>
        </mxCell>
        <mxCell id="ehyeMLWLZtypJvzTVTHI-36" value="&lt;p style=&quot;margin: 0px ; margin-top: 4px ; text-align: center&quot;&gt;&lt;b&gt;SummaryScoreDBManager&lt;/b&gt;&lt;br&gt;&lt;/p&gt;&lt;hr size=&quot;1&quot;&gt;&lt;p style=&quot;margin: 0px ; margin-left: 4px&quot;&gt;+ field: Type&lt;/p&gt;&lt;hr size=&quot;1&quot;&gt;&lt;p style=&quot;margin: 0px ; margin-left: 4px&quot;&gt;+ method(): Type&lt;/p&gt;" style="verticalAlign=top;align=left;overflow=fill;fontSize=12;fontFamily=Helvetica;html=1;" vertex="1" parent="1">
          <mxGeometry x="570" y="428" width="160" height="90" as="geometry"/>
        </mxCell>
        <mxCell id="ehyeMLWLZtypJvzTVTHI-37" value="&lt;p style=&quot;margin: 0px ; margin-top: 4px ; text-align: center&quot;&gt;&lt;br&gt;&lt;b&gt;HippyActivity&lt;/b&gt;&lt;/p&gt;" style="verticalAlign=top;align=left;overflow=fill;fontSize=12;fontFamily=Helvetica;html=1;" vertex="1" parent="1">
          <mxGeometry x="250" y="721" width="140" height="60" as="geometry"/>
        </mxCell>
        <mxCell id="ehyeMLWLZtypJvzTVTHI-38" value="" style="endArrow=open;endSize=12;dashed=1;html=1;entryX=0;entryY=0.5;entryDx=0;entryDy=0;exitX=1;exitY=0.5;exitDx=0;exitDy=0;" edge="1" parent="1" source="ehyeMLWLZtypJvzTVTHI-3" target="ehyeMLWLZtypJvzTVTHI-1">
          <mxGeometry width="160" relative="1" as="geometry">
            <mxPoint x="510" y="410" as="sourcePoint"/>
            <mxPoint x="660" y="408" as="targetPoint"/>
            <Array as="points">
              <mxPoint x="510" y="392"/>
              <mxPoint x="510" y="311"/>
            </Array>
          </mxGeometry>
        </mxCell>
        <mxCell id="ehyeMLWLZtypJvzTVTHI-39" value="" style="endArrow=open;endSize=12;dashed=1;html=1;entryX=0;entryY=0.5;entryDx=0;entryDy=0;exitX=1;exitY=0.5;exitDx=0;exitDy=0;" edge="1" parent="1" source="ehyeMLWLZtypJvzTVTHI-3" target="SxgjUJMsSInwgabmD7E0-39">
          <mxGeometry width="160" relative="1" as="geometry">
            <mxPoint x="510" y="398" as="sourcePoint"/>
            <mxPoint x="670" y="398" as="targetPoint"/>
          </mxGeometry>
        </mxCell>
        <mxCell id="ehyeMLWLZtypJvzTVTHI-40" value="" style="endArrow=open;endSize=12;dashed=1;html=1;entryX=0;entryY=0.5;entryDx=0;entryDy=0;exitX=1;exitY=0.5;exitDx=0;exitDy=0;" edge="1" parent="1" source="ehyeMLWLZtypJvzTVTHI-3" target="ehyeMLWLZtypJvzTVTHI-36">
          <mxGeometry width="160" relative="1" as="geometry">
            <mxPoint x="510" y="410" as="sourcePoint"/>
            <mxPoint x="620" y="618" as="targetPoint"/>
            <Array as="points">
              <mxPoint x="510" y="392"/>
              <mxPoint x="510" y="473"/>
            </Array>
          </mxGeometry>
        </mxCell>
        <mxCell id="ehyeMLWLZtypJvzTVTHI-41" value="" style="endArrow=open;endSize=12;dashed=1;html=1;exitX=0.5;exitY=1;exitDx=0;exitDy=0;entryX=0.5;entryY=0;entryDx=0;entryDy=0;" edge="1" parent="1" source="ehyeMLWLZtypJvzTVTHI-14" target="ehyeMLWLZtypJvzTVTHI-3">
          <mxGeometry width="160" relative="1" as="geometry">
            <mxPoint x="230" y="260" as="sourcePoint"/>
            <mxPoint x="390" y="260" as="targetPoint"/>
          </mxGeometry>
        </mxCell>
      </root>
    </mxGraphModel>
  </diagram>
</mxfile>
